<?xml version="1.0" standalone="no"?>
<!DOCTYPE svg PUBLIC "-//W3C//DTD SVG 20010904//EN"
 "http://www.w3.org/TR/2001/REC-SVG-20010904/DTD/svg10.dtd">
<svg version="1.0" xmlns="http://www.w3.org/2000/svg"
 width="256.000000pt" height="256.000000pt" viewBox="0 0 256.000000 256.000000"
 preserveAspectRatio="xMidYMid meet">

<g transform="translate(0.000000,256.000000) scale(0.100000,-0.100000)"
fill="#000000" stroke="none">
<path d="M783 2510 c-76 -14 -205 -64 -274 -106 -82 -50 -170 -137 -203 -202
-64 -126 -70 -234 -21 -404 l27 -96 -32 -41 c-80 -100 -23 -244 103 -258 41
-5 43 -7 74 -72 39 -80 105 -157 173 -201 47 -30 51 -35 48 -68 l-3 -34 -215
-68 c-246 -77 -282 -93 -334 -151 -79 -86 -81 -96 -84 -437 -2 -222 0 -307 9
-318 10 -12 141 -14 868 -14 653 0 860 3 869 12 8 8 12 56 12 150 l0 138 43
-7 c76 -14 218 -8 277 11 184 61 314 191 376 376 26 76 26 244 0 320 -53 156
-153 274 -289 339 -178 86 -370 78 -542 -23 -111 -65 -217 -212 -247 -343 -9
-36 -18 -53 -28 -52 -8 0 -62 15 -120 33 l-105 34 -3 34 c-3 33 1 38 48 68 69
44 135 121 173 202 28 60 35 68 60 68 43 0 95 28 125 68 21 28 26 46 27 92 0
51 -4 63 -34 100 l-33 42 27 96 c34 118 41 199 26 274 -39 185 -189 331 -421
409 -79 26 -113 32 -210 35 -63 1 -138 -1 -167 -6z m342 -606 c51 -50 127 -90
192 -100 l43 -6 0 -47 c0 -46 -1 -48 -43 -68 l-44 -21 -25 32 c-51 64 -128 82
-198 46 -37 -19 -80 -67 -80 -89 0 -7 -20 -11 -50 -11 -30 0 -50 4 -50 11 0
22 -43 70 -80 89 -70 36 -147 18 -198 -46 l-25 -32 -44 21 c-42 20 -43 22 -43
68 l0 47 198 4 c189 3 199 4 254 30 31 14 76 47 100 71 24 25 44 46 45 46 1 1
23 -20 48 -45z m-371 -235 c58 -27 55 -115 -5 -139 -63 -26 -125 36 -100 99
19 44 60 60 105 40z m400 0 c58 -27 55 -115 -5 -139 -63 -26 -125 36 -100 99
19 44 60 60 105 40z m-752 -109 c3 -72 1 -80 -15 -80 -29 0 -67 45 -67 80 0
33 38 80 64 80 11 0 15 -18 18 -80z m1093 55 c44 -43 24 -116 -35 -130 l-25
-6 3 81 c4 89 14 99 57 55z m-967 -24 c26 -13 41 -30 50 -55 41 -112 219 -121
277 -13 19 34 23 37 65 37 42 0 46 -3 65 -37 58 -108 236 -99 277 13 9 25 24
42 50 55 20 10 40 19 44 19 14 0 -5 -146 -25 -201 -46 -123 -149 -222 -273
-266 -71 -24 -205 -24 -276 0 -124 44 -227 143 -273 266 -20 55 -39 201 -25
201 4 0 24 -9 44 -19z m1502 -242 c70 -11 152 -44 213 -86 l37 -26 0 -125 0
-126 -45 44 -45 44 -32 -32 -33 -32 65 -65 64 -65 -64 -65 -65 -65 33 -32 32
-32 46 44 46 45 -4 -58 c-5 -61 -23 -95 -72 -131 -26 -20 -42 -21 -332 -24
-251 -2 -305 0 -302 11 2 7 -14 49 -34 92 -151 322 54 668 412 694 8 0 44 -4
80 -10z m-1110 -304 c41 0 94 4 118 8 40 8 42 8 42 -15 0 -18 -11 -31 -42 -49
-91 -51 -278 -19 -278 49 0 23 2 23 43 15 23 -4 76 -8 117 -8z m-154 -127 c55
-31 66 -33 154 -33 89 0 99 2 156 33 l61 33 132 -41 c118 -37 131 -44 131 -64
0 -13 3 -38 6 -55 l7 -31 -556 0 c-489 0 -556 -2 -567 -16 -11 -12 -9 -47 9
-192 11 -97 21 -180 21 -184 0 -5 -45 -8 -100 -8 l-100 0 0 128 c0 70 5 145
11 166 15 53 52 106 93 134 29 20 433 157 472 161 6 1 37 -14 70 -31z m934
-538 l25 -20 -104 0 c-111 0 -122 8 -38 26 74 17 89 16 117 -6z m-1367 -107
c3 -5 8 -41 12 -80 l7 -73 -116 0 -116 0 0 80 0 80 104 0 c58 0 107 -3 109 -7z
m1387 -73 l0 -80 -116 0 -116 0 7 73 c4 39 9 75 12 80 2 4 51 7 109 7 l104 0
0 -80z"/>
<path d="M764 1328 c7 -39 31 -74 70 -102 39 -29 133 -29 172 0 39 28 63 63
70 102 6 32 6 32 -33 32 -35 0 -41 -4 -54 -32 -28 -64 -128 -59 -145 7 -5 21
-12 25 -46 25 -40 0 -40 0 -34 -32z"/>
<path d="M1956 1079 c-11 -30 -79 -390 -75 -393 2 -3 22 -6 43 -8 l40 -3 39
198 c22 108 38 199 36 201 -2 2 -21 7 -41 11 -28 5 -39 4 -42 -6z"/>
<path d="M1642 987 c-59 -59 -82 -89 -82 -107 0 -19 24 -49 85 -110 l85 -85
32 33 33 32 -65 65 -64 65 64 65 64 65 -29 30 c-16 16 -31 30 -35 30 -3 0 -42
-37 -88 -83z"/>
</g>
</svg>
